<svg width="25" height="25" viewBox="0 0 25 25" fill="none" xmlns="http://www.w3.org/2000/svg">
<path d="M10.4141 12.5C9.26823 12.5 8.33073 13.4375 8.33073 14.5834C8.33073 15.7292 9.26823 16.6667 10.4141 16.6667C11.5599 16.6667 12.4974 15.7292 12.4974 14.5834C12.4974 13.4375 11.5599 12.5 10.4141 12.5ZM6.2474 8.33335C5.10156 8.33335 4.16406 9.27085 4.16406 10.4167C4.16406 11.5625 5.10156 12.5 6.2474 12.5C7.39323 12.5 8.33073 11.5625 8.33073 10.4167C8.33073 9.27085 7.39323 8.33335 6.2474 8.33335ZM6.2474 16.6667C5.10156 16.6667 4.16406 17.6042 4.16406 18.75C4.16406 19.8959 5.10156 20.8334 6.2474 20.8334C7.39323 20.8334 8.33073 19.8959 8.33073 18.75C8.33073 17.6042 7.39323 16.6667 6.2474 16.6667ZM18.7474 8.33335C19.8932 8.33335 20.8307 7.39585 20.8307 6.25002C20.8307 5.10419 19.8932 4.16669 18.7474 4.16669C17.6016 4.16669 16.6641 5.10419 16.6641 6.25002C16.6641 7.39585 17.6016 8.33335 18.7474 8.33335ZM14.5807 16.6667C13.4349 16.6667 12.4974 17.6042 12.4974 18.75C12.4974 19.8959 13.4349 20.8334 14.5807 20.8334C15.7266 20.8334 16.6641 19.8959 16.6641 18.75C16.6641 17.6042 15.7266 16.6667 14.5807 16.6667ZM18.7474 12.5C17.6016 12.5 16.6641 13.4375 16.6641 14.5834C16.6641 15.7292 17.6016 16.6667 18.7474 16.6667C19.8932 16.6667 20.8307 15.7292 20.8307 14.5834C20.8307 13.4375 19.8932 12.5 18.7474 12.5ZM14.5807 8.33335C13.4349 8.33335 12.4974 9.27085 12.4974 10.4167C12.4974 11.5625 13.4349 12.5 14.5807 12.5C15.7266 12.5 16.6641 11.5625 16.6641 10.4167C16.6641 9.27085 15.7266 8.33335 14.5807 8.33335ZM10.4141 4.16669C9.26823 4.16669 8.33073 5.10419 8.33073 6.25002C8.33073 7.39585 9.26823 8.33335 10.4141 8.33335C11.5599 8.33335 12.4974 7.39585 12.4974 6.25002C12.4974 5.10419 11.5599 4.16669 10.4141 4.16669Z" fill="#9F9F9F"/>
</svg>
