<svg width="25" height="25" viewBox="0 0 25 25" fill="none" xmlns="http://www.w3.org/2000/svg">
<path d="M6.2474 11.4584C9.1224 11.4584 11.4557 9.12502 11.4557 6.25002C11.4557 3.37502 9.1224 1.04169 6.2474 1.04169C3.3724 1.04169 1.03906 3.37502 1.03906 6.25002C1.03906 9.12502 3.3724 11.4584 6.2474 11.4584ZM6.2474 3.12502C7.96615 3.12502 9.3724 4.53127 9.3724 6.25002C9.3724 7.96877 7.96615 9.37502 6.2474 9.37502C4.52865 9.37502 3.1224 7.96877 3.1224 6.25002C3.1224 4.53127 4.52865 3.12502 6.2474 3.12502Z" fill="#9F9F9F"/>
<path d="M21.8724 14.5834H16.6641C15.5182 14.5834 14.5807 15.5209 14.5807 16.6667V21.875C14.5807 23.0209 15.5182 23.9584 16.6641 23.9584H21.8724C23.0182 23.9584 23.9557 23.0209 23.9557 21.875V16.6667C23.9557 15.5209 23.0182 14.5834 21.8724 14.5834ZM21.8724 21.875H16.6641V16.6667H21.8724V21.875Z" fill="#9F9F9F"/>
<path d="M18.4453 8.02085C18.862 8.21877 19.3099 8.33335 19.7891 8.33335C21.5078 8.33335 22.9141 6.9271 22.9141 5.20835C22.9141 3.4896 21.5078 2.08335 19.7891 2.08335C18.0703 2.08335 16.6641 3.4896 16.6641 5.20835C16.6641 5.68752 16.7786 6.13544 16.9766 6.5521L6.54948 16.9792C6.13281 16.7813 5.6849 16.6667 5.20573 16.6667C3.48698 16.6667 2.08073 18.0729 2.08073 19.7917C2.08073 21.5104 3.48698 22.9167 5.20573 22.9167C6.92448 22.9167 8.33073 21.5104 8.33073 19.7917C8.33073 19.3125 8.21615 18.8646 8.01823 18.4479L18.4453 8.02085Z" fill="#9F9F9F"/>
</svg>
