<svg width="25" height="25" viewBox="0 0 25 25" fill="none" xmlns="http://www.w3.org/2000/svg">
<path d="M12.4922 2.08331C6.74219 2.08331 2.08594 6.74998 2.08594 12.5C2.08594 18.25 6.74219 22.9166 12.4922 22.9166C18.2526 22.9166 22.9193 18.25 22.9193 12.5C22.9193 6.74998 18.2526 2.08331 12.4922 2.08331ZM15.8568 18.1146L12.5026 16.0937L9.14844 18.1146C8.7526 18.3541 8.26302 18 8.36719 17.5521L9.2526 13.7396L6.30469 11.1875C5.96094 10.8854 6.14844 10.3125 6.60677 10.2708L10.5026 9.93748L12.0234 6.34373C12.2005 5.91665 12.8047 5.91665 12.9818 6.34373L14.5026 9.92706L18.3984 10.2604C18.8568 10.3021 19.0443 10.875 18.6901 11.1771L15.7422 13.7291L16.6276 17.5521C16.7318 18 16.2526 18.3541 15.8568 18.1146Z" fill="#9F9F9F"/>
</svg>
