<svg width="36" height="36" viewBox="0 0 36 36" fill="none" xmlns="http://www.w3.org/2000/svg">
<path d="M28.5841 5.30251C26.0791 3.21751 22.9741 1.85251 19.5391 1.53751V4.55251C22.1341 4.83751 24.5041 5.87251 26.4541 7.43251L28.5841 5.30251Z" fill="#9F9F9F"/>
<path d="M16.5391 4.55251V1.53751C13.1041 1.83751 9.99906 3.21751 7.49406 5.30251L9.62406 7.43251C11.5741 5.87251 13.9441 4.83751 16.5391 4.55251Z" fill="#9F9F9F"/>
<path d="M7.50906 9.54751L5.37906 7.41751C3.29406 9.92251 1.92906 13.0275 1.61406 16.4625H4.62906C4.91406 13.8675 5.94906 11.4975 7.50906 9.54751Z" fill="#9F9F9F"/>
<path d="M31.4491 16.4625H34.4641C34.1491 13.0275 32.7841 9.92251 30.6991 7.41751L28.5691 9.54751C30.1291 11.4975 31.1641 13.8675 31.4491 16.4625Z" fill="#9F9F9F"/>
<path d="M10.5391 17.9625L15.6991 20.3025L18.0391 25.4625L20.3791 20.3025L25.5391 17.9625L20.3791 15.6225L18.0391 10.4625L15.6991 15.6225L10.5391 17.9625Z" fill="#9F9F9F"/>
<path d="M18.0391 31.4625C13.3741 31.4625 9.26406 29.0775 6.84906 25.4625H10.5391V22.4625H1.53906L1.53906 31.4625H4.53906V27.4125C7.52406 31.6725 12.4441 34.4625 18.0391 34.4625C25.3441 34.4625 31.5391 29.7075 33.6991 23.1225L30.7591 22.4475C28.9141 27.6825 23.9191 31.4625 18.0391 31.4625Z" fill="#9F9F9F"/>
</svg>
