<svg width="36" height="36" viewBox="0 0 36 36" fill="none" xmlns="http://www.w3.org/2000/svg">
<g clip-path="url(#clip0_195255_29597)">
<path d="M13.5 4.5C6.045 4.5 0 10.545 0 18C0 25.455 6.045 31.5 13.5 31.5C20.955 31.5 27 25.455 27 18C27 10.545 20.955 4.5 13.5 4.5ZM13.5 28.5C7.71 28.5 3 23.79 3 18C3 12.21 7.71 7.5 13.5 7.5C19.29 7.5 24 12.21 24 18C24 23.79 19.29 28.5 13.5 28.5Z" fill="#9F9F9F"/>
<path d="M15 10.5H12V18.615L17.685 24.315L19.815 22.185L15 17.385V10.5Z" fill="#9F9F9F"/>
<path d="M26.985 5.28V8.52C30.54 10.2 33 13.815 33 18C33 22.185 30.54 25.8 26.985 27.48V30.72C32.22 28.86 36 23.865 36 18C36 12.135 32.22 7.14 26.985 5.28Z" fill="#9F9F9F"/>
</g>
<defs>
<clipPath id="clip0_195255_29597">
<rect width="36" height="36" fill="white"/>
</clipPath>
</defs>
</svg>
