<svg width="36" height="36" viewBox="0 0 36 36" fill="none" xmlns="http://www.w3.org/2000/svg">
<path d="M11.25 5.25V9.75" stroke="white" stroke-width="2.10526" stroke-linecap="round"/>
<path d="M11.25 21.75V27.75" stroke="white" stroke-width="2.10526" stroke-linecap="round"/>
<path d="M7.5 12.75C7.5 10.6789 9.17893 9 11.25 9C13.3211 9 15 10.6789 15 12.75V18.75C15 20.8211 13.3211 22.5 11.25 22.5C9.17893 22.5 7.5 20.8211 7.5 18.75V12.75Z" fill="white"/>
<path d="M24.75 9.75V17.25" stroke="white" stroke-width="2.10526" stroke-linecap="round"/>
<path d="M24.75 24.75V30.75" stroke="white" stroke-width="2.10526" stroke-linecap="round"/>
<path d="M21 20.25C21 18.1789 22.6789 16.5 24.75 16.5C26.8211 16.5 28.5 18.1789 28.5 20.25V21.75C28.5 23.8211 26.8211 25.5 24.75 25.5C22.6789 25.5 21 23.8211 21 21.75V20.25Z" fill="white"/>
</svg>
