<svg width="36" height="36" viewBox="0 0 36 36" fill="none" xmlns="http://www.w3.org/2000/svg">
<path d="M26.25 4.5C23.355 4.5 21 6.855 21 9.75V12H15V9.75C15 6.855 12.645 4.5 9.75 4.5C6.855 4.5 4.5 6.855 4.5 9.75C4.5 12.645 6.855 15 9.75 15H12V21H9.75C6.855 21 4.5 23.355 4.5 26.25C4.5 29.145 6.855 31.5 9.75 31.5C12.645 31.5 15 29.145 15 26.25V24H21V26.25C21 29.145 23.355 31.5 26.25 31.5C29.145 31.5 31.5 29.145 31.5 26.25C31.5 23.355 29.145 21 26.25 21H24V15H26.25C29.145 15 31.5 12.645 31.5 9.75C31.5 6.855 29.145 4.5 26.25 4.5ZM24 12V9.75C24 8.505 25.005 7.5 26.25 7.5C27.495 7.5 28.5 8.505 28.5 9.75C28.5 10.995 27.495 12 26.25 12H24ZM9.75 12C8.505 12 7.5 10.995 7.5 9.75C7.5 8.505 8.505 7.5 9.75 7.5C10.995 7.5 12 8.505 12 9.75V12H9.75ZM15 21V15H21V21H15ZM26.25 28.5C25.005 28.5 24 27.495 24 26.25V24H26.25C27.495 24 28.5 25.005 28.5 26.25C28.5 27.495 27.495 28.5 26.25 28.5ZM9.75 28.5C8.505 28.5 7.5 27.495 7.5 26.25C7.5 25.005 8.505 24 9.75 24H12V26.25C12 27.495 10.995 28.5 9.75 28.5Z" fill="#9F9F9F"/>
</svg>
