<svg width="36" height="36" viewBox="0 0 36 36" fill="none" xmlns="http://www.w3.org/2000/svg">
<path d="M19.2139 3.0025L19.2643 2.11505L19.2642 2.11504L19.2139 3.0025ZM21.1738 4.77692L22.0519 4.63855L22.0519 4.63844L21.1738 4.77692ZM21.2041 5.04156L22.0886 4.95324V4.95324L21.2041 5.04156ZM21.2588 5.51715L20.3847 5.67869L20.3847 5.67885L21.2588 5.51715ZM24.5215 6.86871L25.0251 7.60118L25.0251 7.60114L24.5215 6.86871ZM24.8965 6.57184L25.4593 7.25986L24.8965 6.57184ZM25.1055 6.40485L24.5827 5.68594L24.5827 5.68594L25.1055 6.40485ZM27.7451 6.53668L28.3369 5.87343L28.3368 5.87333L27.7451 6.53668ZM27.9365 6.72321L28.5651 6.09467L27.9365 6.72321ZM29.2773 8.06403L29.9059 7.43549L29.2773 8.06403ZM29.4629 8.25445L30.126 7.6625L30.1259 7.66244L29.4629 8.25445ZM29.5947 10.8961L30.3133 11.4193L30.3133 11.4193L29.5947 10.8961ZM29.4287 11.1031L30.1166 11.6661L29.4287 11.1031ZM29.1328 11.4761L28.4007 10.972L28.4007 10.972L29.1328 11.4761ZM30.4844 14.7398L30.3228 15.6139L30.3229 15.6139L30.4844 14.7398ZM30.958 14.7955L31.0466 13.911L30.958 14.7955ZM31.2227 14.8248L31.3613 13.9468L31.361 13.9467L31.2227 14.8248ZM32.9971 16.7847L33.8845 16.7343L33.8845 16.7342L32.9971 16.7847ZM33 17.0513H33.8889H33ZM33 18.9478H33.8889V18.9478H33ZM32.9971 19.2134L33.8845 19.2638L33.8845 19.2638L32.9971 19.2134ZM31.2227 21.1734L31.3609 22.0515L31.3611 22.0514L31.2227 21.1734ZM30.958 21.2037L31.0463 22.0882L30.958 21.2037ZM30.4844 21.2584L30.3232 20.3842L30.323 20.3843L30.4844 21.2584ZM29.1318 24.522L28.3995 25.0258L28.3996 25.026L29.1318 24.522ZM29.4287 24.8961L30.1167 24.3333L29.4287 24.8961ZM29.5957 25.105L30.3147 24.5823L30.3146 24.5822L29.5957 25.105ZM29.4639 27.7447L30.127 28.3366L30.1272 28.3364L29.4639 27.7447ZM29.2773 27.9361L29.9057 28.5649L29.9058 28.5647L29.2773 27.9361ZM27.9365 29.2759L27.3082 28.6472L27.3081 28.6473L27.9365 29.2759ZM27.7451 29.4625L28.3367 30.1259L28.3368 30.1258L27.7451 29.4625ZM25.1055 29.5943L24.5826 30.3131L24.5826 30.3131L25.1055 29.5943ZM24.8965 29.4273L25.4594 28.7393L24.8965 29.4273ZM24.5215 29.1304L25.0252 28.398L25.0251 28.398L24.5215 29.1304ZM21.2588 30.482L20.3847 30.3204V30.3204L21.2588 30.482ZM21.2041 30.9566L20.3196 30.8683V30.8683L21.2041 30.9566ZM21.1738 31.2222L22.0519 31.3607L22.0519 31.3606L21.1738 31.2222ZM19.2139 32.9966L19.2642 33.8841L19.2643 33.8841L19.2139 32.9966ZM17.0518 32.9996V33.8885V32.9996ZM16.7852 32.9966L16.7346 33.8841L16.7347 33.8841L16.7852 32.9966ZM14.8252 31.2232L13.9472 31.3619L13.9472 31.362L14.8252 31.2232ZM14.7959 30.9576L13.9114 31.0462L14.7959 30.9576ZM14.7402 30.483L15.6143 30.3212V30.3212L14.7402 30.483ZM11.4766 29.1314L10.9727 28.3991L10.9725 28.3993L11.4766 29.1314ZM11.1035 29.4283L10.5406 28.7404L11.1035 29.4283ZM10.8945 29.5943L11.4174 30.3131L11.4176 30.313L10.8945 29.5943ZM8.25391 29.4625L7.66186 30.1255L7.66192 30.1255L8.25391 29.4625ZM8.06348 29.2769L7.43471 29.9052L7.43486 29.9054L8.06348 29.2769ZM6.72363 27.9361L7.3524 27.3078L7.35224 27.3076L6.72363 27.9361ZM6.53711 27.7447L5.87375 28.3364L5.87377 28.3364L6.53711 27.7447ZM6.40527 25.105L5.68645 24.5821L5.68635 24.5823L6.40527 25.105ZM6.57227 24.8961L7.26029 25.4589L6.57227 24.8961ZM6.86914 24.5211L7.60157 25.0247L7.60161 25.0247L6.86914 24.5211ZM5.51758 21.2584L5.67928 20.3843L5.67912 20.3843L5.51758 21.2584ZM5.04199 21.2037L4.95367 22.0882H4.95367L5.04199 21.2037ZM4.77734 21.1734L4.63886 22.0514L4.63898 22.0515L4.77734 21.1734ZM3.00293 19.2134L2.11547 19.2638L2.11547 19.2639L3.00293 19.2134ZM3.00391 16.7847L2.11646 16.734L2.11645 16.7342L3.00391 16.7847ZM4.77734 14.8257L4.63889 13.9477L4.63877 13.9477L4.77734 14.8257ZM5.04199 14.7955L4.95353 13.911L5.04199 14.7955ZM5.51758 14.7408L5.67923 15.6148L5.6793 15.6148L5.51758 14.7408ZM6.86914 11.4771L7.60154 10.9734L7.60142 10.9732L6.86914 11.4771ZM6.57227 11.1031L7.26023 10.5402L6.57227 11.1031ZM6.40625 10.8941L5.68744 11.417L5.6875 11.4171L6.40625 10.8941ZM6.53711 8.25348L5.87393 7.66161L5.8739 7.66163L6.53711 8.25348ZM6.72363 8.06305L6.09509 7.43451L6.72363 8.06305ZM8.25488 6.53668L7.66295 5.87355L7.66272 5.87376L8.25488 6.53668ZM10.8955 6.40485L11.4185 5.68609L11.4185 5.68608L10.8955 6.40485ZM11.1035 6.57086L10.5407 7.25884L11.1035 6.57086ZM11.4775 6.86676L10.9737 7.59905L10.9737 7.59906L11.4775 6.86676ZM14.7412 5.5152L15.6153 5.67681L15.6153 5.67675L14.7412 5.5152ZM14.7959 5.04156L15.6804 5.13005L14.7959 5.04156ZM14.8252 4.77692L13.9472 4.63848L13.9471 4.6385L14.8252 4.77692ZM16.7861 3.0025L16.7359 2.11503L16.7358 2.11504L16.7861 3.0025ZM17.0518 2.99957V2.11068V2.99957ZM18 11.9996V11.1107H17.9999L18 11.9996ZM12 17.9996L11.1111 17.9995V17.9996H12ZM18 23.9996L17.9999 24.8885H18V23.9996ZM24 17.9996H24.8889V17.9995L24 17.9996ZM19.2139 3.0025L19.1634 3.88996C19.7347 3.92243 20.2065 4.3494 20.2958 4.9154L21.1738 4.77692L22.0519 4.63844C21.8323 3.24656 20.6719 2.19504 19.2643 2.11505L19.2139 3.0025ZM21.1738 4.77692L20.2958 4.91528C20.3004 4.94436 20.3053 4.98611 20.3196 5.12989L21.2041 5.04156L22.0886 4.95324C22.0756 4.82316 22.0659 4.72744 22.0519 4.63855L21.1738 4.77692ZM21.2041 5.04156L20.3196 5.12989C20.3431 5.36517 20.3601 5.54584 20.3847 5.67869L21.2588 5.51715L22.1329 5.35561C22.1256 5.31607 22.1168 5.23606 22.0886 4.95324L21.2041 5.04156ZM21.2588 5.51715L20.3847 5.67885C20.7792 7.81098 23.2385 8.82954 25.0251 7.60118L24.5215 6.86871L24.0179 6.13625C23.2919 6.63536 22.2931 6.22144 22.1328 5.35545L21.2588 5.51715ZM24.5215 6.86871L25.0251 7.60114C25.136 7.52492 25.2736 7.41172 25.4593 7.25986L24.8965 6.57184L24.3337 5.88381C24.1161 6.0618 24.0514 6.1132 24.0178 6.13629L24.5215 6.86871ZM24.8965 6.57184L25.4593 7.25986C25.5787 7.16222 25.606 7.13995 25.6282 7.12375L25.1055 6.40485L24.5827 5.68594C24.5081 5.74019 24.4284 5.80634 24.3337 5.88381L24.8965 6.57184ZM25.1055 6.40485L25.6282 7.12376C26.091 6.78724 26.7261 6.81891 27.1534 7.20003L27.7451 6.53668L28.3368 5.87333C27.2855 4.93564 25.7224 4.85719 24.5827 5.68594L25.1055 6.40485ZM27.7451 6.53668L27.1533 7.19994C27.1745 7.21885 27.2024 7.24612 27.308 7.35174L27.9365 6.72321L28.5651 6.09467C28.4754 6.00504 28.4051 5.93423 28.3369 5.87343L27.7451 6.53668ZM27.9365 6.72321L27.308 7.35174L28.6488 8.69256L29.2773 8.06403L29.9059 7.43549L28.5651 6.09467L27.9365 6.72321ZM29.2773 8.06403L28.6488 8.69256C28.7536 8.79732 28.7809 8.82531 28.7998 8.84647L29.4629 8.25445L30.1259 7.66244C30.0655 7.59477 29.9954 7.52496 29.9059 7.43549L29.2773 8.06403ZM29.4629 8.25445L28.7998 8.84641C29.1815 9.27402 29.2131 9.91002 28.8761 10.3728L29.5947 10.8961L30.3133 11.4193C31.1435 10.2791 31.0648 8.71415 30.126 7.6625L29.4629 8.25445ZM29.5947 10.8961L28.8762 10.3728C28.8604 10.3944 28.8406 10.4182 28.7409 10.5401L29.4287 11.1031L30.1166 11.6661C30.1907 11.5756 30.2589 11.4939 30.3133 11.4193L29.5947 10.8961ZM29.4287 11.1031L28.7409 10.5401C28.5908 10.7234 28.4769 10.8614 28.4007 10.972L29.1328 11.4761L29.8649 11.9803C29.8878 11.9471 29.9381 11.8841 30.1166 11.6661L29.4287 11.1031ZM29.1328 11.4761L28.4007 10.972C27.1703 12.759 28.1899 15.2197 30.3228 15.6139L30.4844 14.7398L30.6459 13.8657C29.779 13.7055 29.3653 12.7059 29.8649 11.9802L29.1328 11.4761ZM30.4844 14.7398L30.3229 15.6139C30.4539 15.6381 30.6275 15.6557 30.8694 15.6799L30.958 14.7955L31.0466 13.911C30.7714 13.8834 30.6866 13.8732 30.6459 13.8657L30.4844 14.7398ZM30.958 14.7955L30.8694 15.6799C31.0252 15.6955 31.0576 15.6986 31.0843 15.7028L31.2227 14.8248L31.361 13.9467C31.2699 13.9324 31.1648 13.9228 31.0466 13.911L30.958 14.7955ZM31.2227 14.8248L31.084 15.7028C31.6499 15.7921 32.0771 16.2642 32.1096 16.8353L32.9971 16.7847L33.8845 16.7342C33.8044 15.3269 32.7528 14.1665 31.3613 13.9468L31.2227 14.8248ZM32.9971 16.7847L32.1096 16.8352C32.1112 16.8623 32.1111 16.8962 32.1111 17.0513H33H33.8889C33.8889 16.9309 33.8898 16.8264 33.8845 16.7343L32.9971 16.7847ZM33 17.0513H32.1111V18.9478H33H33.8889V17.0513H33ZM33 18.9478H32.1111C32.1111 19.1022 32.1111 19.136 32.1096 19.1631L32.9971 19.2134L33.8845 19.2638C33.8897 19.1719 33.8889 19.068 33.8889 18.9478H33ZM32.9971 19.2134L32.1096 19.1631C32.0772 19.7344 31.6503 20.2061 31.0842 20.2954L31.2227 21.1734L31.3611 22.0514C32.753 21.8319 33.8046 20.6716 33.8845 19.2638L32.9971 19.2134ZM31.2227 21.1734L31.0844 20.2953C31.0553 20.2999 31.0134 20.3048 30.8697 20.3192L30.958 21.2037L31.0463 22.0882C31.1765 22.0752 31.2722 22.0654 31.3609 22.0515L31.2227 21.1734ZM30.958 21.2037L30.8697 20.3192C30.6334 20.3428 30.4554 20.3598 30.3232 20.3842L30.4844 21.2584L30.6456 22.1325C30.6854 22.1252 30.766 22.1162 31.0463 22.0882L30.958 21.2037ZM30.4844 21.2584L30.323 20.3843C28.1902 20.7781 27.1701 23.2387 28.3995 25.0258L29.1318 24.522L29.8642 24.0183C29.3649 23.2924 29.7791 22.2925 30.6458 22.1325L30.4844 21.2584ZM29.1318 24.522L28.3996 25.026C28.476 25.137 28.5914 25.2764 28.7407 25.4589L29.4287 24.8961L30.1167 24.3333C29.9367 24.1132 29.8868 24.0512 29.864 24.018L29.1318 24.522ZM29.4287 24.8961L28.7407 25.4589C28.8383 25.5782 28.8606 25.6056 28.8768 25.6278L29.5957 25.105L30.3146 24.5822C30.2604 24.5077 30.1942 24.428 30.1167 24.3333L29.4287 24.8961ZM29.5957 25.105L28.8767 25.6277C29.2133 26.0906 29.1816 26.7258 28.8005 27.153L29.4639 27.7447L30.1272 28.3364C31.065 27.2851 31.1432 25.7219 30.3147 24.5823L29.5957 25.105ZM29.4639 27.7447L28.8007 27.1528C28.7817 27.174 28.7542 27.2022 28.6489 27.3075L29.2773 27.9361L29.9058 28.5647C29.9956 28.4749 30.0663 28.4046 30.127 28.3366L29.4639 27.7447ZM29.2773 27.9361L28.649 27.3073L27.3082 28.6472L27.9365 29.2759L28.5648 29.9047L29.9057 28.5649L29.2773 27.9361ZM27.9365 29.2759L27.3081 28.6473C27.2022 28.7532 27.1745 28.7803 27.1534 28.7991L27.7451 29.4625L28.3368 30.1258C28.405 30.0649 28.4756 29.9939 28.565 29.9045L27.9365 29.2759ZM27.7451 29.4625L27.1535 28.799C26.726 29.1803 26.0908 29.2119 25.6283 28.8755L25.1055 29.5943L24.5826 30.3131C25.7224 31.1422 27.2855 31.0633 28.3367 30.1259L27.7451 29.4625ZM25.1055 29.5943L25.6283 28.8755C25.606 28.8592 25.5784 28.8367 25.4594 28.7393L24.8965 29.4273L24.3336 30.1153C24.4285 30.1929 24.5081 30.2589 24.5826 30.3131L25.1055 29.5943ZM24.8965 29.4273L25.4594 28.7393C25.2735 28.5873 25.136 28.4743 25.0252 28.398L24.5215 29.1304L24.0178 29.8628C24.0514 29.886 24.1163 29.9374 24.3336 30.1153L24.8965 29.4273ZM24.5215 29.1304L25.0251 28.398C23.2385 27.1694 20.7789 28.1878 20.3847 30.3204L21.2588 30.482L22.1329 30.6436C22.293 29.7775 23.2918 29.3636 24.0178 29.8629L24.5215 29.1304ZM21.2588 30.482L20.3847 30.3204C20.3602 30.4532 20.3432 30.6324 20.3196 30.8683L21.2041 30.9566L22.0886 31.0449C22.1167 30.763 22.1255 30.6832 22.1329 30.6436L21.2588 30.482ZM21.2041 30.9566L20.3196 30.8683C20.3051 31.0136 20.3003 31.055 20.2958 31.0838L21.1738 31.2222L22.0519 31.3606C22.066 31.2713 22.0757 31.1742 22.0886 31.0449L21.2041 30.9566ZM21.1738 31.2222L20.2958 31.0838C20.2065 31.6497 19.7347 32.0767 19.1634 32.1092L19.2139 32.9966L19.2643 33.8841C20.6719 33.8041 21.8324 32.7526 22.0519 31.3607L21.1738 31.2222ZM19.2139 32.9966L19.1635 32.1092C19.1362 32.1107 19.1024 32.1107 18.9473 32.1107V32.9996V33.8885C19.0678 33.8885 19.1721 33.8893 19.2642 33.8841L19.2139 32.9966ZM18.9473 32.9996V32.1107H17.0518V32.9996V33.8885H18.9473V32.9996ZM17.0518 32.9996V32.1107C16.8966 32.1107 16.8628 32.1107 16.8356 32.1092L16.7852 32.9966L16.7347 33.8841C16.8269 33.8893 16.9314 33.8885 17.0518 33.8885V32.9996ZM16.7852 32.9966L16.8357 32.1092C16.2644 32.0766 15.7926 31.6498 15.7032 31.0844L14.8252 31.2232L13.9472 31.362C14.1673 32.7535 15.3279 33.804 16.7346 33.8841L16.7852 32.9966ZM14.8252 31.2232L15.7032 31.0845C15.699 31.058 15.6962 31.0269 15.6804 30.869L14.7959 30.9576L13.9114 31.0462C13.9231 31.163 13.9327 31.2702 13.9472 31.3619L14.8252 31.2232ZM14.7959 30.9576L15.6804 30.869C15.6562 30.6276 15.6386 30.4528 15.6143 30.3212L14.7402 30.483L13.8662 30.6447C13.8737 30.6853 13.8837 30.7696 13.9114 31.0462L14.7959 30.9576ZM14.7402 30.483L15.6143 30.3212C15.2197 28.1889 12.7594 27.1697 10.9727 28.3991L11.4766 29.1314L11.9804 29.8637C12.7061 29.3644 13.7058 29.7782 13.8662 30.6447L14.7402 30.483ZM11.4766 29.1314L10.9725 28.3993C10.861 28.476 10.7198 28.5937 10.5406 28.7404L11.1035 29.4283L11.6665 30.1162C11.8889 29.9341 11.948 29.886 11.9806 29.8635L11.4766 29.1314ZM11.1035 29.4283L10.5406 28.7404C10.429 28.8316 10.3954 28.8582 10.3715 28.8756L10.8945 29.5943L11.4176 30.313C11.4902 30.2602 11.5648 30.1994 11.6665 30.1162L11.1035 29.4283ZM10.8945 29.5943L10.3716 28.8755C9.90843 29.2124 9.27299 29.1807 8.84589 28.7994L8.25391 29.4625L7.66192 30.1255C8.71358 31.0644 10.2776 31.1423 11.4174 30.3131L10.8945 29.5943ZM8.25391 29.4625L8.84596 28.7994C8.8247 28.7805 8.79673 28.7531 8.69209 28.6484L8.06348 29.2769L7.43486 29.9054C7.52463 29.9952 7.59414 30.065 7.66186 30.1255L8.25391 29.4625ZM8.06348 29.2769L8.69224 28.6486L7.3524 27.3078L6.72363 27.9361L6.09486 28.5644L7.43471 29.9052L8.06348 29.2769ZM6.72363 27.9361L7.35224 27.3076C7.24626 27.2016 7.21933 27.1742 7.20045 27.153L6.53711 27.7447L5.87377 28.3364C5.93466 28.4046 6.00558 28.4751 6.09502 28.5646L6.72363 27.9361ZM6.53711 27.7447L7.20047 27.153C6.81936 26.7257 6.7877 26.0906 7.12419 25.6278L6.40527 25.105L5.68635 24.5823C4.85767 25.7219 4.93609 27.2851 5.87375 28.3364L6.53711 27.7447ZM6.40527 25.105L7.12409 25.6279C7.14034 25.6056 7.16281 25.578 7.26029 25.4589L6.57227 24.8961L5.88424 24.3333C5.80674 24.428 5.74063 24.5077 5.68645 24.5821L6.40527 25.105ZM6.57227 24.8961L7.26029 25.4589C7.41215 25.2732 7.52536 25.1355 7.60157 25.0247L6.86914 24.5211L6.13671 24.0174C6.11363 24.051 6.06223 24.1157 5.88424 24.3333L6.57227 24.8961ZM6.86914 24.5211L7.60161 25.0247C8.82997 23.2381 7.81141 20.7787 5.67928 20.3843L5.51758 21.2584L5.35588 22.1324C6.22187 22.2926 6.63579 23.2915 6.13667 24.0175L6.86914 24.5211ZM5.51758 21.2584L5.67912 20.3843C5.54627 20.3597 5.3656 20.3427 5.13032 20.3192L5.04199 21.2037L4.95367 22.0882C5.23649 22.1164 5.3165 22.1251 5.35604 22.1324L5.51758 21.2584ZM5.04199 21.2037L5.13032 20.3192C4.98654 20.3048 4.94479 20.2999 4.91571 20.2953L4.77734 21.1734L4.63898 22.0515C4.72787 22.0655 4.82359 22.0752 4.95367 22.0882L5.04199 21.2037ZM4.77734 21.1734L4.91582 20.2954C4.34982 20.2061 3.92285 19.7343 3.89039 19.163L3.00293 19.2134L2.11547 19.2639C2.19547 20.6715 3.24699 21.8319 4.63886 22.0514L4.77734 21.1734ZM3.00293 19.2134L3.89039 19.1631C3.88885 19.1358 3.88889 19.1019 3.88889 18.9468H3H2.11111C2.11111 19.0674 2.11025 19.1717 2.11547 19.2638L3.00293 19.2134ZM3 18.9468H3.88889V17.0523H3H2.11111V18.9468H3ZM3 17.0523H3.88889C3.88889 16.908 3.88967 16.8649 3.89136 16.8352L3.00391 16.7847L2.11645 16.7342C2.11134 16.8241 2.11111 16.9205 2.11111 17.0523H3ZM3.00391 16.7847L3.89135 16.8354C3.92399 16.2641 4.35037 15.793 4.91592 15.7038L4.77734 14.8257L4.63877 13.9477C3.24706 14.1674 2.19685 15.3272 2.11646 16.734L3.00391 16.7847ZM4.77734 14.8257L4.9158 15.7038C4.94484 15.6992 4.98615 15.6944 5.13045 15.6799L5.04199 14.7955L4.95353 13.911C4.82375 13.924 4.72791 13.9337 4.63889 13.9477L4.77734 14.8257ZM5.04199 14.7955L5.13045 15.6799C5.36545 15.6564 5.54627 15.6394 5.67923 15.6148L5.51758 14.7408L5.35593 13.8667C5.3164 13.874 5.23701 13.8826 4.95353 13.911L5.04199 14.7955ZM5.51758 14.7408L5.6793 15.6148C7.81169 15.2203 8.83015 12.7599 7.60154 10.9734L6.86914 11.4771L6.13674 11.9808C6.63603 12.7068 6.22184 13.7065 5.35585 13.8667L5.51758 14.7408ZM6.86914 11.4771L7.60142 10.9732C7.52486 10.862 7.40949 10.7227 7.26023 10.5402L6.57227 11.1031L5.8843 11.666C6.06426 11.8859 6.11404 11.9478 6.13686 11.981L6.86914 11.4771ZM6.57227 11.1031L7.26023 10.5402C7.16874 10.4284 7.14241 10.395 7.12499 10.3711L6.40625 10.8941L5.6875 11.4171C5.74042 11.4898 5.80125 11.5645 5.8843 11.666L6.57227 11.1031ZM6.40625 10.8941L7.12506 10.3712C6.78783 9.90762 6.81955 9.272 7.20032 8.84532L6.53711 8.25348L5.8739 7.66163C4.93502 8.71372 4.85874 10.2778 5.68744 11.417L6.40625 10.8941ZM6.53711 8.25348L7.20029 8.84535C7.21826 8.82522 7.24096 8.8028 7.35217 8.69159L6.72363 8.06305L6.09509 7.43451C6.01134 7.51826 5.93557 7.59253 5.87393 7.66161L6.53711 8.25348ZM6.72363 8.06305L7.35217 8.69159L8.69299 7.35077L8.06445 6.72223L7.43591 6.09369L6.09509 7.43451L6.72363 8.06305ZM8.06445 6.72223L8.69299 7.35077C8.79756 7.2462 8.82576 7.21862 8.84704 7.19961L8.25488 6.53668L7.66272 5.87376C7.59517 5.93409 7.52547 6.00413 7.43591 6.09369L8.06445 6.72223ZM8.25488 6.53668L8.84682 7.19981C9.27407 6.81843 9.90951 6.78672 10.3725 7.12362L10.8955 6.40485L11.4185 5.68608C10.2786 4.85671 8.71454 4.93486 7.66295 5.87355L8.25488 6.53668ZM10.8955 6.40485L10.3725 7.1236C10.395 7.13997 10.4235 7.16303 10.5407 7.25884L11.1035 6.57086L11.6664 5.88288C11.5704 5.80438 11.4925 5.73993 11.4185 5.68609L10.8955 6.40485ZM11.1035 6.57086L10.5407 7.25884C10.7269 7.41118 10.8633 7.52311 10.9737 7.59905L11.4775 6.86676L11.9814 6.13447C11.9477 6.11125 11.8823 6.05954 11.6664 5.88288L11.1035 6.57086ZM11.4775 6.86676L10.9737 7.59906C12.7604 8.82835 15.221 7.80954 15.6153 5.67681L14.7412 5.5152L13.8671 5.35359C13.707 6.21986 12.7073 6.63394 11.9814 6.13446L11.4775 6.86676ZM14.7412 5.5152L15.6153 5.67675C15.6398 5.54437 15.6568 5.36562 15.6804 5.13005L14.7959 5.04156L13.9114 4.95308C13.8833 5.23413 13.8744 5.31406 13.8671 5.35364L14.7412 5.5152ZM14.7959 5.04156L15.6804 5.13005C15.6959 4.97454 15.699 4.942 15.7032 4.91534L14.8252 4.77692L13.9471 4.6385C13.9328 4.72966 13.9233 4.8348 13.9114 4.95308L14.7959 5.04156ZM14.8252 4.77692L15.7032 4.91535C15.7924 4.34971 16.2646 3.92239 16.8365 3.88997L16.7861 3.0025L16.7358 2.11504C15.3284 2.19485 14.1667 3.24594 13.9472 4.63848L14.8252 4.77692ZM16.7861 3.0025L16.8363 3.88997C16.8635 3.88843 16.8974 3.88846 17.0518 3.88846V2.99957V2.11068C16.9314 2.11068 16.8277 2.10984 16.7359 2.11503L16.7861 3.0025ZM17.0518 2.99957V3.88846H18.9473V2.99957V2.11068H17.0518V2.99957ZM18.9473 2.99957V3.88846C19.1023 3.88846 19.1363 3.88842 19.1635 3.88996L19.2139 3.0025L19.2642 2.11504C19.1722 2.10982 19.0678 2.11068 18.9473 2.11068V2.99957ZM18 11.9996L17.9999 11.1107C14.1957 11.111 11.1114 14.1953 11.1111 17.9995L12 17.9996L12.8889 17.9996C12.8891 15.1771 15.1776 12.8887 18.0001 12.8885L18 11.9996ZM12 17.9996H11.1111C11.1111 21.8041 14.1956 24.8882 17.9999 24.8885L18 23.9996L18.0001 23.1107C15.1774 23.1105 12.8889 20.8222 12.8889 17.9996H12ZM18 23.9996V24.8885C21.8046 24.8885 24.8889 21.8042 24.8889 17.9996H24H23.1111C23.1111 20.8224 20.8228 23.1107 18 23.1107V23.9996ZM24 17.9996L24.8889 17.9995C24.8886 14.1952 21.8045 11.1107 18 11.1107V11.9996V12.8885C20.8226 12.8885 23.1109 15.1769 23.1111 17.9996L24 17.9996Z" fill="#79797B"/>
</svg>
