<svg width="36" height="36" viewBox="0 0 36 36" fill="none" xmlns="http://www.w3.org/2000/svg">
<path d="M19.5319 29.895V32.925C22.5469 32.625 25.2919 31.425 27.5119 29.61L25.3819 27.465C23.7169 28.755 21.7219 29.625 19.5319 29.895Z" fill="#9F9F9F"/>
<path d="M6.04688 18C6.04688 11.925 10.5919 6.885 16.4719 6.105V3.075C8.92687 3.87 3.04688 10.26 3.04688 18C3.04688 25.74 8.92687 32.13 16.4719 32.925V29.895C10.5919 29.115 6.04688 24.075 6.04688 18Z" fill="#9F9F9F"/>
<path d="M29.9269 16.5H32.9569C32.6569 13.485 31.4569 10.74 29.6419 8.52L27.4969 10.665C28.7869 12.315 29.6569 14.31 29.9269 16.5Z" fill="#9F9F9F"/>
<path d="M27.5119 6.39C25.2919 4.575 22.5319 3.375 19.5319 3.075V6.105C21.7219 6.375 23.7169 7.245 25.3819 8.535L27.5119 6.39Z" fill="#9F9F9F"/>
<path d="M27.4969 25.35L29.6419 27.48C31.4569 25.26 32.6569 22.515 32.9569 19.5H29.9269C29.6569 21.69 28.7869 23.685 27.4969 25.35Z" fill="#9F9F9F"/>
<path d="M24.0019 16.65C24.0019 12.915 21.1519 10.5 18.0019 10.5C14.8519 10.5 12.0019 12.915 12.0019 16.65C12.0019 19.14 13.9969 22.095 18.0019 25.5C22.0069 22.095 24.0019 19.14 24.0019 16.65ZM18.0019 18C17.1169 18 16.3969 17.28 16.3969 16.395C16.3969 15.51 17.1169 14.79 18.0019 14.79C18.8869 14.79 19.6069 15.51 19.6069 16.395C19.6069 17.28 18.8869 18 18.0019 18Z" fill="#9F9F9F"/>
</svg>
