<svg width="36" height="36" viewBox="0 0 36 36" fill="none" xmlns="http://www.w3.org/2000/svg">
<path d="M16.0996 5.53755C14.9196 6.97901 14.1277 8.74852 13.8789 10.6889C11.3303 12.1299 9.60938 14.8637 9.60937 18.0004C9.60961 22.6365 13.3678 26.395 18.0039 26.395C21.1405 26.3949 23.8725 24.6729 25.3135 22.1245C27.2541 21.8759 29.0241 21.0847 30.4658 19.9047C29.5476 25.9626 24.318 30.6058 18.0039 30.6059C11.0424 30.6059 5.39868 24.9619 5.39844 18.0004C5.39844 11.686 10.0414 6.45553 16.0996 5.53755ZM24.0039 10.2114C24.9921 10.2115 25.793 11.0122 25.793 12.0004C25.7928 12.5956 25.5007 13.1206 25.0537 13.4458C24.4074 12.4473 23.5553 11.5958 22.5566 10.9497C22.8818 10.5024 23.4084 10.2114 24.0039 10.2114Z" fill="#79797B"/>
<circle cx="24" cy="12" r="6" fill="#79797B"/>
</svg>
